<svg class="templateImageIcon" width="40" height="40" viewBox="0 0 40 40" fill="none" xmlns="http://www.w3.org/2000/svg">
<path d="M34.8887 0H5.11133C2.29289 0 0 2.29297 0 5.11141V34.8887C0 37.707 2.29289 40 5.11133 40H34.8887C37.7071 40 40 37.707 40 34.8886V5.11141C40 2.29297 37.7071 0 34.8887 0ZM37.6439 34.8887C37.6439 36.408 36.4079 37.6439 34.8887 37.6439H5.11133C3.59203 37.6439 2.35602 36.4079 2.35602 34.8887V30.5912L10.1103 23.9935C10.3933 23.7527 10.8061 23.7505 11.0917 23.9877L15.9491 28.0211C16.4174 28.4099 17.1049 28.378 17.5353 27.9472L29.0766 16.3883C29.2852 16.1793 29.5284 16.159 29.6554 16.1655C29.782 16.172 30.0222 16.2171 30.2084 16.4464L37.644 25.6019V34.8887H37.6439ZM37.6439 21.8645L32.0372 14.9609C31.4812 14.2762 30.657 13.8576 29.7761 13.8123C28.8958 13.7678 28.0326 14.0992 27.4094 14.7234L16.6275 25.522L12.597 22.1752C11.4284 21.2047 9.74055 21.2148 8.58352 22.1992L2.35602 27.4978V5.11141C2.35602 3.59211 3.59203 2.35609 5.11133 2.35609H34.8887C36.408 2.35609 37.6439 3.59211 37.6439 5.11141V21.8645Z" fill="#929292"/>
</svg>
