<?xml version="1.0" standalone="no"?>
<!DOCTYPE svg PUBLIC "-//W3C//DTD SVG 20010904//EN"
 "http://www.w3.org/TR/2001/REC-SVG-20010904/DTD/svg10.dtd">
<svg version="1.0" xmlns="http://www.w3.org/2000/svg"
 width="1401.000000pt" height="736.000000pt" viewBox="0 0 1401.000000 736.000000"
 preserveAspectRatio="xMidYMid meet">

<g transform="translate(0.000000,736.000000) scale(0.100000,-0.100000)"
fill="#000000" stroke="none">
<path d="M1298 4391 c-26 -4 -51 -10 -55 -15 -4 -4 -10 -59 -11 -122 -4 -113
-4 -115 -29 -125 -14 -5 -34 -7 -44 -4 -10 4 -46 -1 -80 -9 -272 -70 -476
-351 -455 -628 13 -178 71 -313 186 -430 99 -100 193 -148 312 -158 110 -10
114 -14 110 -145 -2 -98 -1 -104 20 -119 20 -15 556 -16 5729 -16 3139 0 5714
3 5723 6 13 5 16 25 16 119 0 129 7 145 68 145 185 1 383 140 478 337 157 325
11 727 -313 863 -54 23 -87 30 -136 30 -91 0 -96 8 -99 150 l-3 115 -40 7
c-50 9 -11313 8 -11377 -1z m9137 -470 c33 -16 90 -55 127 -87 315 -276 619
-524 644 -524 15 0 16 20 12 274 -5 312 -8 326 -74 326 -45 0 -124 20 -124 31
0 12 467 12 474 0 8 -13 -17 -20 -95 -27 -113 -11 -103 31 -108 -458 -2 -244
-7 -426 -12 -426 -5 0 -89 69 -187 153 -376 325 -719 603 -730 593 -4 -4 -7
-152 -7 -328 l0 -320 24 -19 c14 -11 40 -19 65 -20 22 0 59 -6 81 -14 35 -11
11 -13 -210 -14 -188 0 -245 2 -231 11 11 6 50 13 88 16 107 8 103 -9 103 387
0 292 -2 334 -17 361 -21 39 -90 70 -176 80 -41 4 -62 11 -62 20 0 10 26 14
108 17 178 6 240 0 307 -32z m-5146 15 c13 -15 31 -196 20 -196 -13 0 -39 38
-54 80 -25 72 -21 70 -190 70 -183 0 -214 -5 -225 -36 -16 -40 -17 -281 -2
-296 10 -9 49 -13 145 -13 171 1 182 4 199 57 8 24 22 44 31 46 15 3 17 -11
17 -133 0 -123 -2 -136 -17 -133 -10 2 -20 18 -25 38 -16 64 -33 70 -187 70
-187 0 -177 10 -173 -176 3 -178 7 -188 84 -197 73 -9 300 -8 314 1 6 4 26 35
43 70 19 37 36 60 43 56 12 -7 7 -161 -6 -182 -11 -18 -879 -17 -874 1 3 7 38
16 86 23 46 6 87 15 92 20 38 38 39 770 0 794 -7 4 -44 11 -84 14 -85 8 -108
14 -101 27 4 5 180 9 429 9 354 0 425 -2 435 -14z m1248 -9 c113 -37 200 -128
210 -221 10 -83 -59 -175 -154 -207 -41 -13 -41 -20 -3 -42 16 -10 71 -64 122
-120 147 -162 194 -204 269 -241 67 -34 69 -36 42 -43 -15 -3 -65 -7 -109 -7
-130 0 -176 27 -365 222 -166 170 -184 182 -282 182 -66 0 -71 -14 -64 -177 7
-170 12 -178 100 -185 35 -3 73 -10 83 -16 14 -9 -59 -11 -281 -11 -204 0
-292 3 -276 10 14 5 51 12 83 16 35 3 63 12 73 23 25 28 41 354 29 584 -7 111
-16 191 -22 199 -7 8 -41 17 -81 21 -80 7 -103 14 -95 28 4 6 126 8 338 6 274
-4 340 -8 383 -21z m1644 -5 c104 -42 159 -123 144 -218 -8 -53 -52 -105 -125
-143 -57 -31 -57 -32 15 -50 62 -16 146 -72 180 -119 25 -37 30 -52 29 -102
-1 -95 -60 -166 -176 -213 -51 -20 -72 -21 -465 -25 -265 -2 -413 0 -413 6 0
12 31 20 122 32 39 4 75 14 79 22 18 29 24 138 24 439 0 298 -1 318 -19 338
-14 15 -32 21 -65 22 -68 0 -124 12 -129 27 -3 11 63 13 369 10 359 -4 376 -5
430 -26z m1343 19 c8 -13 -17 -20 -95 -27 -38 -4 -76 -12 -85 -19 -30 -22 -45
-418 -24 -665 10 -128 17 -139 79 -141 20 0 54 -6 76 -14 35 -11 2 -13 -265
-14 -214 0 -300 3 -287 10 10 6 49 14 88 18 38 4 76 14 84 22 21 22 39 318 31
529 -7 182 -16 248 -36 260 -7 4 -43 10 -80 14 -75 7 -100 13 -100 27 0 12
607 12 614 0z m-6479 -10 c-3 -5 -46 -13 -95 -17 -56 -4 -94 -12 -101 -20 -14
-18 -34 -260 -25 -309 5 -24 14 -39 29 -44 39 -15 404 -23 552 -12 114 8 142
13 152 27 24 33 9 328 -17 344 -7 4 -42 11 -79 15 -152 16 -92 24 189 24 194
1 290 -3 280 -9 -8 -5 -36 -10 -62 -10 -35 0 -54 -6 -74 -24 -27 -22 -28 -28
-37 -162 -10 -167 -2 -557 13 -600 13 -36 45 -54 100 -54 44 0 70 -8 70 -21 0
-12 -587 -12 -595 0 -7 13 16 19 102 27 40 4 79 12 88 18 28 21 48 302 25 347
-10 18 -25 19 -366 19 l-354 0 -12 -25 c-8 -18 -9 -66 -2 -176 8 -125 13 -153
27 -164 10 -7 56 -16 102 -20 47 -4 87 -10 90 -14 7 -12 -127 -21 -294 -21
-161 0 -281 9 -281 20 0 5 26 11 58 15 32 3 64 10 71 15 24 14 31 91 37 360 6
277 -3 411 -29 438 -8 8 -44 17 -81 21 -138 14 -68 21 223 21 183 0 300 -4
296 -9z m-1712 -332 c15 -11 31 -38 37 -60 9 -33 8 -46 -7 -77 -22 -46 -79
-77 -123 -67 -42 9 -87 50 -95 85 -9 40 11 95 42 120 35 28 111 27 146 -1z
m11418 0 c39 -28 55 -86 35 -133 -19 -46 -60 -71 -113 -70 -51 1 -98 38 -108
85 -9 39 11 94 42 119 35 27 105 27 144 -1z"/>
<path d="M6226 3888 c-16 -13 -19 -33 -24 -160 -5 -163 3 -208 44 -227 35 -16
58 -14 143 9 89 25 125 49 151 100 47 92 -1 198 -114 253 -69 34 -171 46 -200
25z"/>
<path d="M7806 3879 c-21 -33 -35 -291 -16 -314 18 -22 159 -21 225 2 125 45
168 169 90 262 -35 41 -97 63 -196 69 -83 4 -87 4 -103 -19z"/>
<path d="M7800 3480 c-23 -23 -23 -25 -16 -179 7 -178 5 -173 95 -192 126 -26
279 16 329 90 26 40 30 117 7 160 -22 44 -89 96 -146 115 -28 9 -95 19 -149
22 -92 6 -98 6 -120 -16z"/>
</g>
</svg>
