<svg class='lamyLogo' width="178" height="41" viewBox="0 0 178 41" fill="none" xmlns="http://www.w3.org/2000/svg">
<path d="M16.5044 1.99651e-05H30.9457L19.5371 28.305C19.2999 28.9396 18.9734 29.537 18.5674 30.0792L18.6912 30.2649C19.4752 30.2649 19.6815 30.1412 19.929 30.1412H27.7686C28.3669 29.0271 28.5526 28.7589 29.1509 27.7893L47.0581 -0.0412183H63.7275L66.5951 28.305L66.7808 31.5027L66.9252 32.885H67.441C67.8312 31.2161 68.3344 29.5756 68.947 27.9749L80.0462 0.0206706H100.45L98.7374 17.7216L98.6136 19.5577L98.4279 21.6208H98.8818C100.058 19.5577 100.574 18.6294 101.296 17.4947L112.787 -0.0825195H144.289L146.848 10.8929C147.117 11.8707 147.29 12.8727 147.363 13.8843H147.694C148.402 12.7687 149.21 11.7191 150.107 10.7485L160.175 -0.0825195H177.113L150.602 25.9944L144.764 40.6833H130.9L137.77 23.2918L134.366 9.7376C134.121 8.68492 133.948 7.61647 133.85 6.53991H133.582L132.262 10.2121L131.168 13.2035L120.111 40.6833H106.783L115.943 18.2786C116.494 16.7732 117.185 15.3227 118.006 13.9462L117.16 13.7606L116.17 15.2666L114.994 16.9583L97.8916 40.6833H85.9465L87.8239 17.3503C87.8239 16.2362 87.9683 15.5142 88.154 13.8225H87.5145C86.648 16.4425 86.256 17.5566 85.5545 19.3102L77.3024 40.6833H54.9596L54.5057 34.1434L54.3819 32.1836H40.8483L36.0827 40.6833H0L16.5044 1.99651e-05ZM53.4329 9.92327H53.0409C52.7108 10.5834 52.6489 10.7691 52.2569 11.4293L51.8031 12.2752L47.4501 20.0528L46.5217 21.6827L45.7378 23.1268H53.99L53.3298 9.98516L53.4329 9.92327Z" fill="#313131"/>
</svg>
