<svg version="1.0" xmlns="http://www.w3.org/2000/svg"
 width="820.000000pt" height="392.000000pt" viewBox="0 0 820.000000 392.000000"
 preserveAspectRatio="xMidYMid meet">

<g transform="translate(0.000000,392.000000) scale(0.100000,-0.100000)"
fill="#000000" stroke="none">
<path d="M5737 3423 c-42 -53 -74 -100 -70 -104 5 -4 18 -10 30 -13 18 -6 27
0 49 36 57 90 77 118 84 118 10 0 210 -285 210 -299 0 -6 -15 -11 -32 -12 -46
-1 -81 -12 -86 -27 -2 -6 46 -64 107 -127 61 -63 111 -120 111 -127 0 -8 -13
-22 -30 -31 -16 -10 -30 -24 -30 -30 0 -7 -3 -22 -6 -34 -5 -18 10 -34 88 -96
110 -88 153 -132 176 -178 17 -33 18 -34 81 -34 51 0 66 4 75 18 16 27 -31 64
-223 176 -89 51 -161 96 -161 100 0 3 30 12 66 19 37 7 71 15 75 18 25 15 -2
52 -117 163 -69 66 -123 125 -119 131 3 5 27 10 53 10 61 0 92 9 92 26 0 7
-21 39 -47 72 -60 74 -285 322 -292 322 -3 0 -41 -44 -84 -97z"/>
<path d="M6979 3495 c-71 -46 -84 -148 -26 -211 74 -81 207 -47 237 61 12 42
11 49 -11 91 -42 81 -128 107 -200 59z m157 -39 c40 -40 46 -92 15 -142 -41
-67 -151 -67 -191 -1 -32 51 -26 103 14 143 29 29 41 34 81 34 40 0 52 -5 81
-34z"/>
<path d="M7007 3433 c-4 -7 -3 -68 1 -108 3 -25 22 -17 22 10 0 14 6 25 13 25
8 0 19 -11 25 -25 6 -14 18 -25 27 -25 12 0 13 4 3 25 -9 19 -8 31 2 50 11 20
11 27 0 40 -13 15 -85 21 -93 8z m64 -28 c0 -5 -9 -11 -21 -13 -20 -3 -27 8
-13 22 10 9 34 3 34 -9z"/>
<path d="M1590 3335 c-80 -74 -145 -140 -145 -147 0 -9 21 -14 69 -15 37 -1
73 -6 78 -11 6 -6 -34 -64 -114 -163 -175 -218 -183 -228 -171 -240 9 -9 172
55 285 112 51 26 42 49 -18 49 -30 0 -46 5 -50 15 -4 9 23 56 67 117 101 139
96 127 63 153 l-28 22 54 79 c30 44 63 91 73 106 20 27 17 59 -5 57 -7 0 -78
-61 -158 -134z"/>
<path d="M1796 3421 c-6 -10 117 -256 140 -280 11 -12 19 -12 55 -1 22 8 43
19 46 26 2 6 -17 34 -44 61 -26 28 -75 84 -108 126 -57 73 -77 88 -89 68z"/>
<path d="M5710 3244 c-25 -25 -89 -84 -142 -131 -54 -47 -95 -89 -92 -95 3 -5
34 -9 68 -8 82 3 86 2 80 -14 -3 -7 -66 -64 -140 -126 -74 -61 -133 -117 -131
-123 3 -9 34 -11 108 -8 l104 3 -30 -32 c-37 -40 -265 -235 -323 -275 -23 -17
-42 -35 -42 -41 0 -12 45 -24 91 -24 55 0 33 -25 -88 -101 -43 -27 -127 -75
-186 -105 -61 -31 -106 -61 -104 -67 2 -8 34 -13 85 -15 l80 -3 84 74 c46 40
128 108 183 150 116 88 159 127 150 135 -3 3 -25 5 -49 3 -25 -1 -47 2 -50 7
-3 5 60 77 139 160 99 103 143 156 139 167 -5 11 -21 15 -65 15 -41 0 -59 4
-59 13 0 6 43 59 95 117 53 57 94 111 93 120 -2 8 -16 16 -31 18 -15 2 -27 8
-27 13 0 6 27 50 60 98 55 80 72 121 52 121 -4 0 -28 -21 -52 -46z"/>
<path d="M1975 3111 c-11 -18 8 -41 82 -97 110 -85 110 -84 82 -105 l-24 -18
50 -46 c96 -89 221 -200 254 -226 44 -33 34 -49 -30 -49 -75 0 -63 -21 71
-121 62 -47 115 -90 117 -96 3 -7 -34 -13 -99 -17 -122 -8 -158 -14 -158 -27
0 -23 232 -148 412 -223 87 -36 188 -57 188 -39 0 16 -18 27 -105 63 -78 32
-185 96 -185 110 0 13 43 20 135 21 202 2 234 26 95 71 -96 31 -365 178 -365
199 0 11 28 15 129 19 170 7 178 29 26 73 -124 36 -463 248 -444 279 3 4 29 8
57 8 63 0 97 9 97 24 0 11 -137 91 -268 156 -87 42 -110 51 -117 41z"/>
<path d="M1393 2721 c-141 -122 -277 -257 -269 -269 4 -6 26 -17 49 -23 l42
-11 -35 -30 c-19 -17 -86 -64 -148 -105 -140 -92 -143 -107 -29 -111 42 -2 77
-6 77 -10 0 -4 -11 -14 -23 -23 -30 -22 -255 -148 -344 -193 -40 -20 -73 -41
-73 -46 0 -14 400 -9 400 5 0 6 -30 13 -67 18 -36 4 -69 9 -71 12 -12 12 13
37 90 90 135 94 248 185 248 200 0 8 -16 16 -40 20 -22 4 -40 11 -40 16 0 6
41 52 90 103 93 96 109 126 66 126 -33 0 -56 10 -56 24 0 6 48 63 105 126 90
99 120 140 100 140 -2 0 -35 -26 -72 -59z"/>
<path d="M6200 2518 c0 -7 50 -57 110 -111 128 -115 142 -134 105 -143 -51
-13 -27 -38 141 -147 91 -60 163 -112 159 -115 -4 -4 -64 -7 -133 -7 -120 0
-127 -1 -127 -20 0 -18 9 -21 80 -27 162 -13 665 -22 665 -11 0 11 -46 32
-230 103 -183 71 -393 159 -404 170 -8 8 1 14 61 35 19 6 5 32 -20 39 -38 10
-207 115 -291 182 -78 61 -116 78 -116 52z"/>
<path d="M4963 1986 c-6 -10 -63 -14 -251 -19 -227 -7 -282 -14 -282 -37 0
-17 65 -19 369 -12 335 8 356 12 256 57 -66 29 -81 30 -92 11z"/>
<path d="M2730 1961 c-36 -16 -65 -34 -65 -42 0 -19 163 -23 475 -9 135 5 373
15 530 20 314 12 353 15 347 33 -6 19 -120 20 -663 7 -444 -11 -504 -10 -530
3 -28 14 -34 13 -94 -12z"/>
<path d="M5660 1951 c-54 -9 -46 -35 11 -39 34 -2 53 -10 69 -27 43 -46 79
-20 50 35 -8 16 -72 43 -90 39 -3 -1 -21 -4 -40 -8z"/>
<path d="M1968 1941 c-66 -8 -88 -30 -88 -86 0 -63 23 -71 64 -22 20 23 46 39
73 47 53 13 78 36 62 56 -12 14 -30 15 -111 5z"/>
<path d="M6023 1925 c-15 -11 -23 -26 -23 -46 0 -24 4 -29 25 -29 18 0 31 10
45 33 11 17 18 37 17 42 -6 17 -41 17 -64 0z"/>
<path d="M1598 1924 c-15 -14 -8 -24 30 -39 20 -9 47 -28 58 -43 19 -23 24
-25 38 -13 17 14 21 57 7 79 -9 15 -122 29 -133 16z"/>
<path d="M3685 1569 c-161 -10 -282 -61 -395 -165 -118 -110 -170 -230 -172
-397 -1 -170 40 -274 157 -392 46 -47 94 -83 140 -107 117 -60 171 -72 335
-72 132 0 152 2 227 27 86 29 205 102 260 159 47 49 101 144 123 217 25 79 27
233 5 312 -38 133 -126 248 -248 322 -130 80 -252 107 -432 96z m190 -473 c64
-27 72 -145 12 -190 -25 -19 -42 -21 -147 -21 -111 0 -120 1 -144 24 -49 46
-42 156 12 185 37 21 220 21 267 2z"/>
<path d="M500 1000 l0 -550 220 0 220 0 0 105 c0 60 4 105 9 105 10 0 211
-233 211 -244 0 -3 -150 -7 -332 -9 -183 -1 1289 -2 3272 -2 l3605 0 -3088 5
-3089 5 66 63 c40 38 63 68 59 75 -4 7 -47 59 -96 115 l-88 104 59 62 c70 73
96 119 112 203 27 138 -24 291 -135 399 -117 115 -83 109 -577 112 l-428 3 0
-551z m716 106 c8 -11 14 -30 14 -42 0 -41 -23 -48 -158 -48 l-127 -1 -3 44
c-2 24 -1 48 1 55 3 7 46 11 132 11 114 0 128 -2 141 -19z"/>
<path d="M1830 1000 l0 -550 233 2 232 3 3 158 3 157 89 0 90 0 0 -160 0 -160
230 0 230 0 0 550 0 550 -230 0 -230 0 0 -160 0 -160 -90 0 -90 0 0 160 0 160
-235 0 -235 0 0 -550z"/>
<path d="M4550 1000 l0 -552 353 4 c325 4 356 6 407 25 136 50 224 116 294
217 204 297 66 705 -282 829 -52 19 -86 21 -414 25 l-358 4 0 -552z m656 97
c20 -10 37 -31 48 -57 14 -35 14 -45 2 -73 -26 -63 -46 -72 -167 -75 l-109 -4
0 117 0 117 98 -4 c64 -3 108 -10 128 -21z"/>
<path d="M5850 1000 l0 -550 218 2 217 3 0 545 0 545 -217 3 -218 2 0 -550z"/>
<path d="M6826 1542 c-3 -5 -82 -213 -176 -462 -94 -249 -184 -486 -201 -527
-16 -40 -29 -80 -29 -88 0 -13 31 -15 227 -13 l226 3 71 192 c39 106 75 193
79 193 5 0 51 -88 103 -195 l94 -195 240 0 c132 0 240 2 240 5 0 3 -428 975
-471 1068 l-12 27 -193 0 c-106 0 -195 -4 -198 -8z"/>
<path d="M7019 613 c-44 -115 -59 -157 -55 -160 2 -2 40 -3 84 -1 l80 3 -43
93 c-24 50 -46 92 -50 92 -3 0 -10 -12 -16 -27z"/>
</g>
</svg>
