<svg xmlns="http://www.w3.org/2000/svg" width="400" height="110.667" version="1.0" viewBox="0 0 300 83"><path d="M23 6.9C15.7 9.2 8.8 15.3 4.9 23c-3.1 6.3-3.1 16.5.1 23.8C9.4 57 20.3 64 31.5 64S53.6 56.9 58 46.8c3.2-7.3 3.2-17.5.1-23.8-3.4-6.7-9.7-12.7-15.9-15C36.8 6 27.8 5.5 23 6.9zm14.2 2.2c2.4 1.1 6 2.9 8 4 2 1 4.3 1.9 5.1 1.9.8 0 2.2 1.1 3 2.4 1.5 2.2 1.5 2.5.1 3-.9.3-3.7.6-6.2.6-2.6.1-6.2.9-7.9 1.8L36 24.5l3 4.5c1.7 2.5 3 5.1 3 5.7 0 .7.3 1.3.8 1.3 1.7 0 7.9-6 9.7-9.4 2.1-3.9 4.1-4.6 4.9-1.9.3 1 .1 5.8-.3 10.8-.5 4.9-.7 9.3-.5 9.7.7 1-1.8 5.8-3 5.8-.6 0-3.1 1.6-5.5 3.5S43.3 58 42.9 58c-.5 0-1.6.9-2.6 1.9-2.1 2.2-7.3 3.9-7.3 2.3 0-.5 1.1-3.4 2.5-6.4 1.4-2.9 2.5-6.7 2.5-8.4v-3H24.8l.5 4.2c.2 2.4 1.4 6.1 2.6 8.4 1.1 2.2 2.1 4.5 2.1 5.1 0 1.6-4.8.2-7.9-2.2-7.2-5.5-12.2-8.9-13-8.9-1.2 0-2.4-2.9-2.7-6.5-.1-1.7-.5-5.9-.9-9.5-.8-8.9-.8-10.1.5-11.4.9-.8 1.6-.4 2.8 1.4 2.4 3.7 9.8 11 11.1 11 .6 0 1.1-.6 1.1-1.3 0-.7 1.3-3.4 2.9-5.9l3-4.6-4-1.6c-2.2-.9-5.8-1.6-8.2-1.6-5.8 0-7.1-1-5.1-3.8.8-1.2 2.1-2.2 2.8-2.2.7 0 4.6-1.8 8.7-3.9 8.7-4.6 10.4-4.8 16.1-2z"/><path d="M28.5 14.7c-4.8 1-4.9 1.4-1 3.6l4 2.3 3.7-2.1c2-1.1 3.4-2.3 3-2.6-1-.9-7.4-1.7-9.7-1.2zM28.5 32.5c-1.5 2.4-2.4 4.9-2 5.5.8 1.2 7.5 1.3 9.4.1 1.2-.7.9-1.7-1.3-5.5-1.5-2.5-2.9-4.6-3.1-4.6-.2 0-1.6 2-3 4.5zM11.6 39.7c.7 3.1 5.3 10.5 6.9 11 .6.2.9-1.4.7-4.1-.3-3.9-.9-4.8-4.3-7.1l-4-2.6.7 2.8zM47.8 39.5c-3.1 2.1-3.6 3.1-4 7-.2 2.5 0 4.5.4 4.5 1.6 0 8.6-12.5 7.6-13.6-.2-.2-2 .8-4 2.1zM166.4 7.5c-.1.5-1 6.6-1.9 13.5-2.5 19.2-2.7 19.3-6 1.6L155.7 7h-6.8c-7.8 0-6.9-1.5-9.8 15-3.3 17.9-3.2 17.9-5.7 2-1.2-8-2.3-15.1-2.3-15.8C131 7.3 124.5 7 102 7H73v11h15l.2 22.7.3 22.8h15l.2-22.5.2-22.5 7-.3 7-.3.9 3.5c.6 1.9 3.1 12.3 5.7 23l4.7 19.6h6.3c4.1 0 6.4-.4 6.7-1.3.3-.6 1.8-7.4 3.3-15 1.6-7.6 3.2-13.2 3.5-12.5.4.7 2 7.5 3.5 15.1l2.8 13.8 6.5-.3 6.5-.3 6.8-28c3.7-15.4 6.8-28.1 6.8-28.2.1-.1-3.3-.3-7.5-.5-4.5-.2-7.8.1-8 .7zM191.3 9.1c-5.4 2.1-7.6 4.5-8.7 9.6-.9 4.2 1.2 8.9 7.8 17.7 3 3.9 5.7 8.1 6.1 9.3 1.8 6-2.4 8.3-15.1 8.3-9 0-8.5-.3-9.9 6.8l-.7 3.2h17.4c16 0 17.7-.2 21.8-2.2 3.6-1.8 4.8-3.1 5.9-6.4 1.9-5.4.6-8.7-6.7-16.8-6.5-7.2-11.2-14.3-11.2-16.8 0-2.9 5.2-4.8 13.5-4.8h7.5V7l-11.2.1c-8.8 0-12.5.4-16.5 2zM222.2 35.1l.3 28.4 10.2-.2c13.2-.2 20.5-2.2 25.5-7.3 3.3-3.2 3.8-4.4 3.8-8.3 0-5.2-3-9.6-8-11.7l-3.1-1.3 3.7-2.4c6.1-4.2 7.6-10.9 3.6-17-.7-1.2-3.9-3.5-7-5-5.1-2.5-7-2.8-17.5-3.2L222 6.8l.2 28.3zm20.3-17.6c1.4 1.3 2.5 3.5 2.5 4.8 0 3.1-3.6 7.7-6.1 7.7-1.7 0-1.9-.8-1.9-7.5 0-8.4 1.1-9.5 5.5-5zm1.8 25.3c1 .9 1.7 2.9 1.7 4.9 0 2.7-.6 3.7-3.2 5.3-5.3 3.2-5.8 2.8-5.8-5.3 0-4.1.3-7.7.6-8 .8-.7 4.1.8 6.7 3.1zM265 34.5c0 15.1-.1 27.8-.2 28.2-.2.5 3.2.9 7.5 1.1l7.7.3V7h-15v27.5zM288 54c-2.5 2.5-2.5 4.1.1 7.4 2.7 3.4 6.4 3.2 9.2-.5 1.6-2.3 1.7-3 .7-5-.7-1.3-1.8-2.7-2.4-3.1-2-1.4-5.6-.8-7.6 1.2zm7.1 0c2.5 1.4 2.4 5.2-.1 7.5-2.9 2.6-7 .7-7-3.3 0-4.6 2.9-6.4 7.1-4.2z"/><path d="M290.7 54.7c-.4.3-.7 2-.7 3.7 0 2.3.3 2.7.9 1.7.7-1.1 1.3-1.2 2.3-.4 1 .9 1.3.6 1.5-1.5.2-3.2-2.3-5.3-4-3.5zm2.8 1.3c.3.5-.1 1-1 1s-1.3-.5-1-1c.3-.6.8-1 1-1 .2 0 .7.4 1 1zM164.5 71c-.3.5-.1 1 .4 1 .6 0 1.1-.5 1.1-1 0-.6-.2-1-.4-1-.3 0-.8.4-1.1 1zM212 71.4c0 .8-1 1.6-2.2 1.8-1.7.2-2.3 1-2.3 2.8 0 2 .5 2.5 2.8 2.6 1.5.1 2.7-.4 2.8-1 0-.6.2-2.4.3-3.9.1-1.6-.2-3.1-.6-3.3-.4-.3-.8.2-.8 1zm0 4c0 2.1-2.1 3.1-3 1.5-.5-.7-.6-1.7-.4-2.1.9-1.4 3.4-.9 3.4.6zM219 74.2c0 3.9.3 4.4 2.4 4.6 1.3.1 2.9-.4 3.5-1.2 1.7-2 .2-4.6-2.6-4.6-1.3 0-2.2-.4-1.8-.9.3-.5.1-1.2-.5-1.6-.6-.4-1 1-1 3.7zm5 1.2c0 2.1-2.1 3.1-3 1.5-.5-.7-.6-1.7-.4-2.1.9-1.4 3.4-.9 3.4.6zM254.5 71c-.3.5-.1 1 .4 1 .6 0 1.1-.5 1.1-1 0-.6-.2-1-.4-1-.3 0-.8.4-1.1 1zM263 71c0 .5.5 1 1.1 1 .5 0 .7-.5.4-1-.3-.6-.8-1-1.1-1-.2 0-.4.4-.4 1zM258.5 72.2c-1.2 2.9-.1 6.3 2 6.5 1.1.2 1.4 0 .8-.3-1.8-.8-1.6-4.4.2-4.4.9 0 1.5.9 1.5 2.5 0 1.4.5 2.5 1 2.5.6 0 1-1.4 1-3 0-2.5-.4-3-2.4-3-1.3 0-2.6-.6-2.9-1.3-.3-.8-.7-.7-1.2.5zM164 75.4c0 1.4.5 2.8 1 3.1.6.4 1-.7 1-2.4s-.4-3.1-1-3.1c-.5 0-1 1.1-1 2.4zM168 76.1c0 1.8.4 2.8 1 2.4.6-.4.9-1.4.8-2.3-.2-.9.5-1.8 1.4-2 1.2-.2 1.8.5 2.1 2.5.4 2.7.4 2.7.6-.5.1-2.9-.2-3.2-2.9-3.2-2.7 0-3 .3-3 3.1zM176 74c0 .6.7 1.3 1.5 1.6.8.4 1.5 1.1 1.5 1.6 0 .6-.7.8-1.5.4-.8-.3-1.5-.1-1.5.4 0 1.4 3.7 1.2 4.6-.1.4-.7-.1-1.6-1.1-2.1-1.4-.8-1.5-1.2-.4-1.9 1-.6.8-.9-.8-.9-1.3 0-2.3.5-2.3 1zM182 76.9c0 2.3.5 4.1 1 4.1.6 0 1-.3 1-.8 0-.4 1-1.2 2.3-1.7 1.2-.6 2.2-1.9 2.2-3 0-1.5-.8-2.1-3.2-2.3-3.2-.3-3.3-.2-3.3 3.7zm5-.8c0 2.4-2.3 2.1-2.8-.4-.2-1 .3-1.7 1.2-1.7 1 0 1.6.9 1.6 2.1zM191.2 76c0 1.9.2 2.7.5 1.7.2-.9.2-2.5 0-3.5-.3-.9-.5-.1-.5 1.8zM194 76c0 1.6.5 3 1 3 .6 0 1-1.1 1-2.4 0-1.3.6-2.7 1.3-2.9.6-.3.2-.6-1-.6-1.9-.1-2.3.4-2.3 2.9zM199.4 74.4c-.8 2.2 1.4 4.6 4 4.5 2-.2 2-.2-.1-.6-3.1-.6-2.9-2.3.3-2.3 3.4 0 2.6-2.4-.9-2.8-1.8-.2-2.9.2-3.3 1.2zm4.3.2c-.3.3-1.2.4-1.9.1-.8-.3-.5-.6.6-.6 1.1-.1 1.7.2 1.3.5zM227.5 75.2c.4 1.3.7 3.1.8 4 .2 2.7 1.2 2.2 3-1.7 2-4.1 2-4.5.8-4.5-.5 0-1.2 1-1.5 2.2l-.7 2.3-.9-2.3c-.5-1.2-1.2-2.2-1.6-2.2-.3 0-.3 1 .1 2.2zM238.1 76c.6 1.6 1.5 3 2 3 1.2 0 1.1-.4-.3-3.5-1.6-3.5-2.9-3.1-1.7.5zM241.6 73.7c-.3.3-.6 1.3-.6 2.1 0 .9.3 1.2.7.9.3-.4 1.2.1 1.8 1 1.1 1.5 1.4 1.3 2.9-1.5.9-1.8 1.3-3.2.8-3.2s-1.4 1-2 2.2c-.8 1.8-1.1 1.9-1.1.6-.1-1.9-1.5-3.1-2.5-2.1zM249 76.1c0 1.7.4 2.8 1 2.4.6-.3 1-1.5 1-2.5s.6-2.1 1.3-2.3c.6-.3.2-.6-1-.6-1.9-.1-2.3.4-2.3 3zM254.5 74.2c-.4 1-.4 2.6 0 3.5.8 1.7.8 1.7 1.2 0 .3-.9.3-2.5 0-3.5-.4-1.6-.4-1.6-1.2 0zM267.1 76.2c.1 3 .2 3.1.8.8.8-2.8 3.6-3.4 3.6-.8 0 .9.4 2 .9 2.5.4.4.6-.6.4-2.2-.2-2.4-.8-3.1-3-3.3-2.6-.3-2.8-.1-2.7 3zM275 76c0 1.6-.1 3.3-.2 3.7-.2.5.8 1 2.1 1.1 2.5.4 5-1.3 3.6-2.5-.4-.5-1-.2-1.2.4-.3.7-1.2 1.3-2.1 1.3-1.3 0-1.2-.4.5-2.3 3.6-4 3.7-4.7.4-4.7-2.8 0-3.1.3-3.1 3zm4-1.6c0 1.1-1.9 1.5-2.5.6-.3-.5.1-1 .9-1 .9 0 1.6.2 1.6.4z"/></svg>